<?xml version="1.0" encoding="UTF-8" standalone="no"?>
<!-- Created with Inkscape (http://www.inkscape.org/) -->
<svg xmlns:rdf="http://www.w3.org/1999/02/22-rdf-syntax-ns#" xmlns="http://www.w3.org/2000/svg" height="28" width="28" version="1.1" xmlns:cc="http://creativecommons.org/ns#" xmlns:dc="http://purl.org/dc/elements/1.1/" viewBox="0 0 7.4083332 7.4083335">
 <metadata>
  <rdf:RDF>
   <cc:Work rdf:about="">
    <dc:format>image/svg+xml</dc:format>
    <dc:type rdf:resource="http://purl.org/dc/dcmitype/StillImage"/>
    <dc:title/>
   </cc:Work>
  </rdf:RDF>
 </metadata>
 <g transform="translate(0 -289.59)">
  <g id="titlebutton-minimize" fill-rule="evenodd" transform="matrix(.0081245 0 0 -.0081245 -.048578 297.06)">
   <path d="m461.9 7.8583c251.8 0 455.93 204.12 455.93 455.93 0 251.8-204.12 455.92-455.93 455.92-251.8 0-455.92-204.13-455.92-455.92-0.0008-251.81 204.12-455.93 455.92-455.93" fill="#da9e10"/>
   <path d="m461.9 46.638c230.38 0 417.15 186.76 417.15 417.15 0 230.38-186.76 417.14-417.15 417.14-230.38 0-417.15-186.76-417.15-417.14 0-230.39 186.77-417.15 417.15-417.15" fill="#fac536"/>
  </g>
 </g>
</svg>
