<?xml version="1.0" encoding="UTF-8" standalone="no"?>
<!-- Created with Inkscape (http://www.inkscape.org/) -->
<svg xmlns:rdf="http://www.w3.org/1999/02/22-rdf-syntax-ns#" xmlns="http://www.w3.org/2000/svg" height="14" width="14" version="1.1" xmlns:cc="http://creativecommons.org/ns#" xmlns:dc="http://purl.org/dc/elements/1.1/" viewBox="0 0 3.7041666 3.7041668">
 <metadata>
  <rdf:RDF>
   <cc:Work rdf:about="">
    <dc:format>image/svg+xml</dc:format>
    <dc:type rdf:resource="http://purl.org/dc/dcmitype/StillImage"/>
    <dc:title/>
   </cc:Work>
  </rdf:RDF>
 </metadata>
 <g id="titlebutton-close-hover" fill-rule="evenodd" transform="matrix(.032498 0 0 .032498 22.572 33.659)">
  <path d="m-637.58-921.74c31.475 0 56.99-25.516 56.99-56.991s-25.516-56.991-56.99-56.991c-31.475 0-56.991 25.516-56.991 56.991s25.516 56.991 56.991 56.991" fill="#d52735"/>
  <path d="m-637.58-926.59c28.797 0 52.143-23.346 52.143-52.144s-23.345-52.143-52.143-52.143-52.144 23.345-52.144 52.143 23.345 52.144 52.144 52.144" fill="#f25056"/>
  <path d="m-664.46-958.56 47.051-47.052c1.8209-1.8208 4.8-1.8208 6.6219 0l0.087 0.088c1.8213 1.8208 1.8213 4.8 0.00054 6.6213l-47.052 47.051c-1.8213 1.8213-4.8005 1.8213-6.6213 0l-0.088-0.0869c-1.8209-1.8213-1.8209-4.8011 0-6.6219" fill="#9f1d2b"/>
  <path d="m-657.75-1005.6 47.051 47.052c1.8208 1.8208 1.8208 4.8005 0 6.6213l-0.0876 0.0875c-1.8213 1.8213-4.8004 1.8213-6.6213 0l-47.051-47.051c-1.8215-1.8214-1.8215-4.8006 0-6.6218l0.0875-0.087c1.8213-1.8213 4.8005-1.8213 6.6219 0" fill="#9f1d2b"/>
 </g>
</svg>
