<?xml version="1.0" encoding="UTF-8" standalone="no"?>
<!-- Created with Inkscape (http://www.inkscape.org/) -->
<svg xmlns:rdf="http://www.w3.org/1999/02/22-rdf-syntax-ns#" xmlns="http://www.w3.org/2000/svg" height="14" width="14" version="1.1" xmlns:cc="http://creativecommons.org/ns#" xmlns:dc="http://purl.org/dc/elements/1.1/" viewBox="0 0 3.7041666 3.7041668">
 <metadata>
  <rdf:RDF>
   <cc:Work rdf:about="">
    <dc:format>image/svg+xml</dc:format>
    <dc:type rdf:resource="http://purl.org/dc/dcmitype/StillImage"/>
    <dc:title/>
   </cc:Work>
  </rdf:RDF>
 </metadata>
 <g id="titlebutton-minimize-hover" fill-rule="evenodd" transform="matrix(.0040622 0 0 -.0040622 -.024289 3.7126)">
  <path d="m461.9 2.0792c251.8 0 455.93 204.12 455.93 455.93 0 251.8-204.12 455.92-455.93 455.92-251.8 0-455.92-204.13-455.92-455.93-0.0008-251.8 204.12-455.92 455.92-455.92" fill="#da9e10"/>
  <path d="m461.9 40.854c230.38 0 417.15 186.76 417.15 417.15 0 230.38-186.76 417.15-417.15 417.15-230.38 0-417.15-186.76-417.15-417.15s186.77-417.15 417.15-417.15" fill="#fac536"/>
  <path d="m195.74 495.95h532.33c20.604 0 37.458-16.85 37.458-37.458v-0.98773c0-20.608-16.854-37.458-37.458-37.458h-532.33c-20.605 0-37.458 16.85-37.458 37.458v0.98773c0 20.608 16.853 37.458 37.458 37.458" fill="#975914"/>
 </g>
</svg>
