<?xml version="1.0" encoding="UTF-8" standalone="no"?>
<svg
   xmlns:dc="http://purl.org/dc/elements/1.1/"
   xmlns:cc="http://creativecommons.org/ns#"
   xmlns:rdf="http://www.w3.org/1999/02/22-rdf-syntax-ns#"
   xmlns:svg="http://www.w3.org/2000/svg"
   xmlns="http://www.w3.org/2000/svg"
   xmlns:xlink="http://www.w3.org/1999/xlink"
   xmlns:sodipodi="http://sodipodi.sourceforge.net/DTD/sodipodi-0.dtd"
   xmlns:inkscape="http://www.inkscape.org/namespaces/inkscape"
   id="Layer_1"
   viewBox="0 0 2200 2200"
   width="2200"
   height="2200"
   version="1.1"
   sodipodi:docname="brave_logo_horz.svg"
   inkscape:version="0.92.1 r15371">
  <metadata
     id="metadata36">
    <rdf:RDF>
      <cc:Work
         rdf:about="">
        <dc:format>image/svg+xml</dc:format>
        <dc:type
           rdf:resource="http://purl.org/dc/dcmitype/StillImage" />
        <dc:title>brave_logo_horz</dc:title>
      </cc:Work>
    </rdf:RDF>
  </metadata>
  <defs
     id="defs34">
    <linearGradient
       inkscape:collect="always"
       xlink:href="#SVGID_1_"
       id="linearGradient4574"
       x1="11.838879"
       y1="1108.0001"
       x2="2188.1611"
       y2="1108.0001"
       gradientUnits="userSpaceOnUse" />
  </defs>
  <sodipodi:namedview
     pagecolor="#ffffff"
     bordercolor="#666666"
     borderopacity="1"
     objecttolerance="10"
     gridtolerance="10"
     guidetolerance="10"
     inkscape:pageopacity="0"
     inkscape:pageshadow="2"
     inkscape:window-width="1366"
     inkscape:window-height="714"
     id="namedview32"
     showgrid="false"
     inkscape:zoom="0.13695394"
     inkscape:cx="-246.96375"
     inkscape:cy="701.7345"
     inkscape:window-x="0"
     inkscape:window-y="26"
     inkscape:window-maximized="1"
     inkscape:current-layer="Layer_1"
     showguides="false"
     inkscape:guide-bbox="true">
    <sodipodi:guide
       position="1141.0449,1182.3497"
       orientation="1,0"
       id="guide4562"
       inkscape:locked="false" />
    <sodipodi:guide
       position="993.03461,1014.9398"
       orientation="0,1"
       id="guide4564"
       inkscape:locked="false" />
    <sodipodi:guide
       position="993.03461,1014.9398"
       orientation="1,0"
       id="guide4566"
       inkscape:locked="false" />
  </sodipodi:namedview>
  <style
     id="style2">.st0{fill:url(#SVGID_1_)}.st1{fill:#fff}.st2{fill:#676767}</style>
  <title
     id="title4">brave_logo_horz</title>
  <linearGradient
     id="SVGID_1_"
     gradientUnits="userSpaceOnUse"
     x1="868.24597"
     y1="2037.533"
     x2="868.24597"
     y2="0.54000002"
     gradientTransform="matrix(1,0,0,-1,-0.25,2045.533)">
    <stop
       offset="0"
       stop-color="#f9ba16"
       id="stop6" />
    <stop
       offset=".04"
       stop-color="#faa612"
       id="stop8" />
    <stop
       offset=".11"
       stop-color="#fc8b0c"
       id="stop10" />
    <stop
       offset=".19"
       stop-color="#fd7508"
       id="stop12" />
    <stop
       offset=".28"
       stop-color="#fe6404"
       id="stop14" />
    <stop
       offset=".4"
       stop-color="#ff5902"
       id="stop16" />
    <stop
       offset=".56"
       stop-color="#ff5200"
       id="stop18" />
    <stop
       offset="1"
       stop-color="#ff5000"
       id="stop20" />
  </linearGradient>
  <path
     id="path42"
     d="m 2148.1612,1108.0149 c 0,578.858 -469.2866,1048.1463 -1048.1722,1048.1463 -578.88578,0 -1048.150121,-469.2809 -1048.150121,-1048.1463 0,-578.90259 469.256991,-1048.17598 1048.142721,-1048.17598 578.8857,0 1048.1796,469.27339 1048.1796,1048.17598 z"
     inkscape:connector-curvature="0"
     style="fill:url(#linearGradient4574);fill-opacity:1;stroke:#ffffff;stroke-width:80;stroke-miterlimit:4;stroke-dasharray:none;stroke-opacity:1" />
  <path
     style="fill:#ffffff"
     d="m 1085.4953,528.89734 c -4.85,0 -9.6988,0.25 -14.5488,0.75 -18.3,4.3 -48.1,12.6008 -66,18.3008 l -92.20123,29.8008 c -16.1,5.6 -33.1992,7.9992 -50.1992,7.1992 l -51.3008,-9.6992 -117,-22.6016 -33.69922,-6.0996 c -8.1,8.3 -15.69961,17.2 -22.59961,26.5 l -77.80078,96.9004 c -11.8,14.7 -30.1,39.4992 -40.5,55.1992 l -56.69922,83.9004 c -9.8,14.39998 -18.80039,29.40078 -26.90039,44.80078 -5,17.3 -7.60039,35.09958 -7.90039,53.09958 l 3.20117,9 c 1.4,5.9 3.19844,11.5992 5.39844,17.1992 14.5,17.5 30.10156,34.2004 46.60156,49.9004 l 196.59961,181.9004 c 13.9,15.2 17.59922,37 9.69922,56 l -32.59961,77.5 c -6.9,20.7 -6.9,43.1004 0,63.9004 l 6.5,17.9004 c 10.7,29.2 28.99961,54.9996 53.09961,74.5996 l 31.20117,25.5 c 16.6,12.1 38.39844,14.6988 57.39844,6.7988 l 111.6016,-53.0996 c 20.2,-10.3 39.0988,-22.8992 56.2988,-37.6992 l 89.30083,-80.7012 c 14.7,-13.3 15.7004,-35.9992 2.4004,-50.6992 l -0.6016,-0.5996 -154.19923,-132.4004 c -14.5,-14.2 -19.2992,-35.5 -12.1992,-54.5 l 51.2988,-127 c 6.9,-19.4 6.9,-40.5004 0,-59.9004 -9.6,-18.39998 -25.3,-32.90038 -44.5,-40.90038 L 659.64566,757.04774 c -17.6,-6.8 -16.89883,-13.6004 2.20117,-15.4004 l 127,-11.7988 c 22.40004,-1.3 44.89844,1.4988 66.39844,8.2988 l 126.6016,45.2012 c 18.00003,7 28.49883,25.8988 24.79883,44.79878 l -46.29883,202.30078 c -4.3,18.3 -8.6,38.6992 -10,45.1992 6.3,11.3 18.2992,18.3008 31.1992,18.3008 l 88.30083,17.1992 c 22.2,3.7 44.8996,3.7 67.0996,0 l 80.6992,-16.8984 c 13,-0.1 25.0012,-7.2012 31.2012,-18.7012 0,-6.5 -5.7,-26.4988 -10,-44.7988 l -47,-202.70118 c -3.9,-18.99998 6.5988,-37.99878 24.7988,-44.79878 l 126.5996,-45.2012 c 21.4,-6.8 43.9004,-9.5988 66.4004,-8.2988 l 127,11.7988 c 18.7,0 19.7012,8.6004 2.2012,15.4004 l -244.7012,92.90038 c -19,7.8 -34.8,21.9992 -44.5,40.19918 -6.9,19.4 -6.9,40.5004 0,59.9004 l 53.0996,127.4004 c 6.7,19 1.7016,40.1992 -12.8984,54.1992 l -153.8008,132.8008 c -13.7,14.3 -13.2008,36.9992 1.1992,50.6992 l 0.6016,0.5996 89.6992,79.6016 c 17.3,14.1 36.2008,26.1984 56.3008,35.8984 l 111.5996,53.1016 c 19,7.9 40.8004,5.2992 57.4004,-6.8008 l 31.1992,-25.5 c 24.1,-19.7 42.3996,-45.3996 53.0996,-74.5996 l 6.5,-17.9004 c 6.9,-20.7 6.9,-43.1004 0,-63.9004 l -34.4004,-74.5996 c -6.9,-19.1 -2.2992,-40.4004 11.8008,-54.9004 l 196.1992,-182.1992 c 16.5,-15.8 32.1016,-32.6012 46.6016,-50.2012 2.2,-6.1 3.8996,-12.3992 5.0996,-18.6992 l 2.9004,-9 c 0.1,-12 -0.8,-24.0004 -2.5,-35.90038 -8.5,-21.6 -19.5016,-42.1988 -32.6016,-61.29878 l -56.6992,-83.6016 c -10.4,-15.8 -28.7,-40.4992 -40.5,-55.1992 l -76.0996,-94.6992 c -6.9,-9.3 -14.4996,-18.2 -22.5996,-26.5 l -33.7012,6.0996 -118.6992,20.4004 -50.9004,9.6992 c -17,0.9 -34.0992,-1.5992 -50.1992,-7.1992 l -92.2012,-29.8008 c -17.9,-5.7 -47.7,-14.0008 -66,-18.3008 -9.7,-1 -19.3996,-1 -29.0996,0 -4.85,-0.5 -9.7008,-0.75 -14.5508,-0.75 z m 3.9512,887.55076 c -12.3,3.5 -24.3004,8.0008 -35.9004,13.3008 l -54.9004,23 c -17.60003,7.2 -45.19963,20.3996 -62.09963,29.0996 l -101.0996,52.5996 c -10.2,3.3 -15.8,14.2004 -12.5,24.4004 1.6,5 5.2,9.2 10,11.5 l 87.5,62.0996 c 15.4,10.8 39.7988,29.8008 53.7988,42.3008 l 24.80083,21.1992 51.6992,45.1992 23.3008,20.8008 c 14.9,12.5 36.6992,12.5 51.6992,0 l 24.3008,-21.5 51.6992,-45.1992 24.8008,-21.5 c 14.3,-12.6 38.4008,-31.6008 53.8008,-42.3008 l 87.8984,-62.8008 c 9.7,-4.1 14.2016,-15.2984 10.1016,-24.8984 -2.3,-5.4 -6.9016,-9.4004 -12.6016,-10.9004 l -102.1992,-51.3008 c -16.9,-8.6 -44.8004,-21.4992 -62.4004,-28.6992 l -53.5996,-23.0996 c -11.6,-5.3 -23.6004,-9.7008 -35.9004,-13.3008 z"
     id="path25"
     inkscape:connector-curvature="0" />
</svg>
