<?xml version="1.0" encoding="UTF-8" standalone="no"?>
<svg
   xmlns:dc="http://purl.org/dc/elements/1.1/"
   xmlns:cc="http://creativecommons.org/ns#"
   xmlns:rdf="http://www.w3.org/1999/02/22-rdf-syntax-ns#"
   xmlns:svg="http://www.w3.org/2000/svg"
   xmlns="http://www.w3.org/2000/svg"
   xmlns:sodipodi="http://sodipodi.sourceforge.net/DTD/sodipodi-0.dtd"
   xmlns:inkscape="http://www.inkscape.org/namespaces/inkscape"
   version="1.1"
   viewBox="0 0 208 208"
   xml:space="preserve"
   id="svg4725"
   sodipodi:docname="discord-canary.svg"
   inkscape:version="0.92.3 (2405546, 2018-03-11)"
   width="208"
   height="208"><metadata
     id="metadata4731"><rdf:RDF><cc:Work
         rdf:about=""><dc:format>image/svg+xml</dc:format><dc:type
           rdf:resource="http://purl.org/dc/dcmitype/StillImage" /><dc:title /></cc:Work></rdf:RDF></metadata><defs
     id="defs4729" /><sodipodi:namedview
     pagecolor="#ffffff"
     bordercolor="#666666"
     borderopacity="1"
     objecttolerance="10"
     gridtolerance="10"
     guidetolerance="10"
     inkscape:pageopacity="0"
     inkscape:pageshadow="2"
     inkscape:window-width="1920"
     inkscape:window-height="1016"
     id="namedview4727"
     showgrid="false"
     inkscape:zoom="2.36"
     inkscape:cx="-46.010198"
     inkscape:cy="103.83343"
     inkscape:window-x="0"
     inkscape:window-y="36"
     inkscape:window-maximized="1"
     inkscape:current-layer="Discord" /><style
     type="text/css"
     id="style4662">
	.st0{fill:#0087BC;}
	.st1{fill:#F2F2F2;}
	.st2{fill:#B3B3B3;}
	.st3{fill:#F2F2F2;stroke:#B3B3B3;stroke-width:3;stroke-miterlimit:10;}
	.st4{opacity:0.3;fill:#FFFFFF;}
	.st5{opacity:0.2;fill:#F2F2F2;}
	.st6{fill:#E84236;}
	.st7{fill:#FFFFFF;stroke:#B3B3B3;stroke-width:3;stroke-miterlimit:10;}
	.st8{fill:#5C337F;}
	.st9{fill:#6988B7;}
	.st10{fill:#FFFFFF;stroke:#B3B3B3;stroke-width:2;stroke-linecap:round;stroke-linejoin:round;stroke-miterlimit:10;}
	.st11{fill:#0067E3;}
	.st12{fill:#FFF200;}
	.st13{fill:#FFFFFF;stroke:#000000;stroke-width:5;stroke-miterlimit:10;}
	.st14{opacity:0.66;fill:#FFFFFF;}
	.st15{fill:#17CB2D;}
	.st16{fill:#FFFFFF;}
	.st17{fill:#9E0A03;}
	.st18{opacity:0.15;fill:#FFFFFF;}
	.st19{fill:#CCCCCC;stroke:#B3B3B3;stroke-width:3;stroke-miterlimit:10;}
	.st20{fill:#E6E6E6;stroke:#B3B3B3;stroke-width:3;stroke-miterlimit:10;}
	.st21{fill:#FF233D;}
	.st22{fill:#F73E26;}
	.st23{fill:#F2F2F2;stroke:#000000;stroke-width:4;stroke-linecap:round;stroke-linejoin:round;stroke-miterlimit:10;}
	.st24{fill:#F2F2F2;stroke:#000000;stroke-width:4;stroke-miterlimit:10;}
	.st25{stroke:#000000;stroke-width:4;stroke-miterlimit:10;}
	.st26{fill:none;stroke:#000000;stroke-width:4;stroke-linecap:round;stroke-linejoin:round;stroke-miterlimit:10;}
	.st27{fill:url(#SVGID_1_);}
	.st28{fill:#B22483;}
	.st29{opacity:0.32;fill:#FFFFFF;}
	.st30{fill:#12A0CC;}
	.st31{fill:#F2F2F2;stroke:#BDCCD4;stroke-width:3;stroke-miterlimit:10;}
	.st32{fill:#FF1E13;}
	.st33{fill:#F2F2F2;stroke:#CCCCCC;stroke-width:3;stroke-miterlimit:10;}
	.st34{fill:#FF1E13;stroke:#CCCCCC;stroke-width:3;stroke-miterlimit:10;}
	.st35{fill:#1F41CC;}
	.st36{opacity:0.2;fill:#F2F2F2;stroke:#000000;stroke-width:0.5;stroke-miterlimit:10;}
	.st37{opacity:0.3;fill:#FFFFFF;stroke:#000000;stroke-width:0.5;stroke-miterlimit:10;}
</style><g
     id="g4723"
     inkscape:groupmode="layer"
     transform="translate(0,8)"><g
       id="Artboard_16" /><g
       id="Linked_In"><g
         id="In" /><g
         id="Bubble_13_" /></g><g
       id="Google_Plus"><g
         id="Icon_3_" /><g
         id="Bubble_12_" /></g><g
       id="Twitch"><g
         id="Twitch_1_" /><g
         id="Bubble_11_" /></g><g
       id="Discord"><g
         id="g4676"
         style="opacity:1;stroke:#ffffff;stroke-width:7;stroke-linecap:butt;stroke-linejoin:miter;stroke-miterlimit:4;stroke-dasharray:none;stroke-opacity:1;paint-order:normal"
         transform="translate(4,-4)"><circle
           class="st9"
           cx="100"
           cy="100"
           r="100"
           id="circle4674"
           style="fill:#faa61a;stroke:#ffffff;stroke-width:7;stroke-linecap:butt;stroke-linejoin:miter;stroke-miterlimit:4;stroke-dasharray:none;stroke-opacity:1;paint-order:normal;fill-opacity:1" /></g><g
         id="Controller"
         transform="translate(4,-4)"><path
           class="st10"
           d="M 150.1,70.3 C 142.1,62.6 114,58 114,58 v 2.4 c 0,0 14.9,5 18,8.5 0,0 -2.1,0.9 -2.1,0.9 -2.9,-2.7 -10.4,-4.5 -14,-5.5 -0.2,-0.1 -0.5,-0.1 -0.6,-0.1 -2.3,-0.4 -4.8,-0.7 -7.2,-0.9 -0.3,0 -0.5,0 -0.8,-0.1 -0.8,-0.1 -2.2,-0.1 -2.2,-0.1 v 0 c 0,0 -0.6,0 -0.8,0 -1.2,0 -2.6,-0.1 -3.8,-0.1 -0.1,0 -0.2,0 -0.3,0 -0.2,0 -0.3,0 -0.5,0 -1.2,0 -2.1,0 -3.3,0.1 C 96,63 96,63 96,63 v 0 c 0,0 -0.3,0 -0.4,0 -0.9,0 -1.9,0.1 -2.8,0.2 -0.3,0 -0.6,0 -1,0.1 -2.5,0.2 -4.9,0.5 -7.2,0.9 -0.2,0 -0.4,0 -0.6,0.1 -3.6,1 -11,2.8 -13.9,5.5 0,0 -1.8,-0.9 -1.8,-0.9 3.1,-3.5 18.6,-8.5 18.6,-8.5 V 58 c 0,0 -28.7,4.7 -36.7,12.3 -12.4,11.9 -18.8,58.9 -18.8,58.9 0,0 8.3,19.1 33.7,12.6 l 4.6,-6.8 c 0,0 -10.7,-4.8 -10.7,-7 0,0 2.8,1 3.8,1.3 3.9,1.3 11.8,4 15.8,5.2 0.2,0.1 0.4,0.1 0.6,0.1 0.6,0.1 1.2,0.2 1.7,0.4 0.3,0.1 0.6,0.1 0.9,0.2 0.5,0.1 1,0.2 1.6,0.3 0.4,0.1 0.8,0.1 1.2,0.2 0.5,0.1 1,0.2 1.5,0.2 0.4,0.1 0.9,0.1 1.3,0.2 0.5,0.1 0.9,0.1 1.4,0.2 0.5,0.1 1,0.1 1.5,0.2 0.4,0 0.9,0.1 1.3,0.1 0.5,0 1.1,0.1 1.6,0.1 0.4,0 0.9,0.1 1.3,0.1 0.5,0 0.5,0 1.5,0.1 v 0 c 0,0 -0.1,0 0,0 0.3,0 0.6,0 0.9,0 1,0 1.8,0 2.8,0 0.1,0 0.2,0 0.3,0 0.1,0 0.1,0 0.2,0 0.2,0 0.4,0 0.6,0 0.2,0 0.4,0 0.6,0 0.6,0 1.2,0 1.8,0 0.3,0 0.9,0 1.3,0 0.1,0 0.6,0 0.6,0 v 0 c 0,0 0.3,0 0.5,0 0.4,0 0.7,-0.1 1.2,-0.1 0.5,0 1,-0.1 1.6,-0.1 0.4,0 0.9,-0.1 1.3,-0.1 0.5,-0.1 1,-0.1 1.4,-0.2 0.5,-0.1 0.9,-0.1 1.4,-0.2 0.4,-0.1 0.9,-0.1 1.3,-0.2 0.5,-0.1 1,-0.2 1.5,-0.2 0.4,-0.1 0.8,-0.1 1.2,-0.2 0.5,-0.1 1.1,-0.2 1.6,-0.3 0.3,-0.1 0.6,-0.1 0.9,-0.2 0.6,-0.1 1.2,-0.2 1.7,-0.4 0.2,0 0.4,-0.1 0.6,-0.1 4,-1.1 11.9,-3.8 15.8,-5.2 0.9,-0.3 3.8,-1.3 3.8,-1.3 0,2.1 -10.7,7 -10.7,7 l 4.6,6.8 c 25.3,6.5 33.7,-12.6 33.7,-12.6 0,0 -6,-47.1 -18.4,-59 z m -69.3,49.8 c -6.3,0 -11.4,-5.1 -11.4,-11.4 0,-6.3 5.1,-11.4 11.4,-11.4 6.3,0 11.4,5.1 11.4,11.4 0.1,6.3 -5.1,11.4 -11.4,11.4 z m 38.2,0 c -6.3,0 -11.4,-5.1 -11.4,-11.4 0,-6.3 5.1,-11.4 11.4,-11.4 6.3,0 11.4,5.1 11.4,11.4 0,6.3 -5.1,11.4 -11.4,11.4 z"
           id="path4678"
           inkscape:connector-curvature="0"
           style="fill:#ffffff;stroke:none;stroke-width:2;stroke-linecap:round;stroke-linejoin:round;stroke-miterlimit:10" /></g></g><g
       id="Behance"><g
         id="BE" /><g
         id="Bubble_9_" /></g><g
       id="SnapChat"><g
         id="Snap_Icon" /><g
         id="Ghost" /><g
         id="Dots" /><g
         id="Bubble_8_" /></g><g
       id="WhatsApp"><g
         id="Icon_2_" /><g
         id="Bubble_7_" /></g><g
       id="Flipboard"><g
         id="Bubble_6_" /><g
         id="Icon_1_" /></g><g
       id="Pinterest"><g
         id="Bubble_5_" /><g
         id="Icon" /></g><g
       id="Reddit"><g
         id="Reddit_Icon" /><g
         id="Bubble_1_" /></g><g
       id="Tumblr"><g
         id="Layer_21" /><g
         id="Bubble" /></g><g
       id="Instagram"><g
         id="Layer_20" /><g
         id="Bubble_4_" /></g><g
       id="Twitter"><g
         id="Twitter_Bird" /><g
         id="Bubble_3_" /></g><g
       id="YouTube"><g
         id="YouTube_Button" /><g
         id="Bubble_2_" /></g><g
       id="Facebook_Icon"><g
         id="Facebook" /></g></g></svg>