<?xml version="1.0" encoding="UTF-8" standalone="no"?>
<!-- Generator: Adobe Illustrator 19.0.0, SVG Export Plug-In . SVG Version: 6.00 Build 0)  -->

<svg
   xmlns:dc="http://purl.org/dc/elements/1.1/"
   xmlns:cc="http://creativecommons.org/ns#"
   xmlns:rdf="http://www.w3.org/1999/02/22-rdf-syntax-ns#"
   xmlns:svg="http://www.w3.org/2000/svg"
   xmlns="http://www.w3.org/2000/svg"
   xmlns:sodipodi="http://sodipodi.sourceforge.net/DTD/sodipodi-0.dtd"
   xmlns:inkscape="http://www.inkscape.org/namespaces/inkscape"
   version="1.1"
   id="Layer_1"
   x="0px"
   y="0px"
   viewBox="0 0 429.99999 429.99999"
   xml:space="preserve"
   sodipodi:docname="spotify.svg"
   width="430"
   height="430"
   inkscape:version="0.92.1 r15371"><metadata
     id="metadata39"><rdf:RDF><cc:Work
         rdf:about=""><dc:format>image/svg+xml</dc:format><dc:type
           rdf:resource="http://purl.org/dc/dcmitype/StillImage" /><dc:title></dc:title></cc:Work></rdf:RDF></metadata><defs
     id="defs37" /><sodipodi:namedview
     pagecolor="#ffffff"
     bordercolor="#666666"
     borderopacity="1"
     objecttolerance="10"
     gridtolerance="10"
     guidetolerance="10"
     inkscape:pageopacity="0"
     inkscape:pageshadow="2"
     inkscape:window-width="1366"
     inkscape:window-height="714"
     id="namedview35"
     showgrid="false"
     inkscape:zoom="1.2201071"
     inkscape:cx="213.826"
     inkscape:cy="213.826"
     inkscape:window-x="0"
     inkscape:window-y="26"
     inkscape:window-maximized="1"
     inkscape:current-layer="Layer_1" /><circle
     id="circle3730"
     cy="218.004"
     cx="213.83081"
     style="stroke-width:4.20000029"
     r="210" /><path
     style="fill:#00d95f"
     d="M 215.826,2.3479919 C 97.733,2.3479919 2,98.080992 2,216.17399 c 0,118.093 95.733,213.826 213.826,213.826 118.093,0 213.826,-95.733 213.826,-213.826 C 429.652,98.080992 333.919,2.3479919 215.826,2.3479919 Z m 93.06,310.3199981 c -2.719,4.652 -7.612,7.246 -12.638,7.247 -2.506,0 -5.044,-0.645 -7.364,-2 -38.425,-22.456 -82.815,-26.065 -113.295,-25.138 -33.763,1.027 -58.523,7.692 -58.769,7.76 -7.783,2.126 -15.826,-2.454 -17.961,-10.236 -2.134,-7.781 2.43,-15.819 10.209,-17.962 1.116,-0.307 27.76,-7.544 64.811,-8.766 21.824,-0.72 42.834,0.801 62.438,4.52 24.83,4.71 47.48,12.978 67.322,24.574 6.973,4.074 9.321,13.03 5.247,20.001 z m 27.184,-56.459 c -3.22,5.511 -9.016,8.583 -14.97,8.584 -2.968,0 -5.975,-0.763 -8.723,-2.369 -45.514,-26.6 -98.097,-30.873 -134.2,-29.776 -39.994,1.217 -69.323,9.112 -69.614,9.192 -9.217,2.515 -18.746,-2.906 -21.275,-12.124 -2.528,-9.218 2.879,-18.738 12.093,-21.277 1.322,-0.364 32.882,-8.937 76.77,-10.384 25.853,-0.852 50.739,0.949 73.96,5.354 29.412,5.58 56.241,15.373 79.744,29.108 8.26,4.826 11.042,15.434 6.215,23.692 z m 16.711,-51.335 c -3.641,0 -7.329,-0.936 -10.7,-2.906 -108.207,-63.238 -248.572,-25.643 -249.977,-25.255 -11.313,3.117 -23.008,-3.527 -26.124,-14.839 -3.117,-11.312 3.527,-23.008 14.839,-26.124 1.621,-0.447 40.333,-10.962 94.166,-12.737 31.713,-1.044 62.237,1.164 90.72,6.567 36.077,6.844 68.987,18.856 97.815,35.704 10.13,5.92 13.543,18.931 7.623,29.061 -3.95,6.76 -11.059,10.529 -18.362,10.529 z"
     id="path2"
     inkscape:connector-curvature="0" /></svg>