<?xml version="1.0" encoding="UTF-8" standalone="no"?>
<!-- Svg Vector Icons : http://www.onlinewebfonts.com/icon -->

<svg
   xmlns:dc="http://purl.org/dc/elements/1.1/"
   xmlns:cc="http://creativecommons.org/ns#"
   xmlns:rdf="http://www.w3.org/1999/02/22-rdf-syntax-ns#"
   xmlns:svg="http://www.w3.org/2000/svg"
   xmlns="http://www.w3.org/2000/svg"
   xmlns:sodipodi="http://sodipodi.sourceforge.net/DTD/sodipodi-0.dtd"
   xmlns:inkscape="http://www.inkscape.org/namespaces/inkscape"
   version="1.1"
   x="0px"
   y="0px"
   viewBox="0 0 1070 1070"
   enable-background="new 0 0 1000 1000"
   xml:space="preserve"
   id="svg12"
   sodipodi:docname="typora.svg"
   inkscape:version="0.92.2 5c3e80d, 2017-08-06"
   width="1070"
   height="1070"><defs
     id="defs16" /><sodipodi:namedview
     pagecolor="#ffffff"
     bordercolor="#666666"
     borderopacity="1"
     objecttolerance="10"
     gridtolerance="10"
     guidetolerance="10"
     inkscape:pageopacity="0"
     inkscape:pageshadow="2"
     inkscape:window-width="1920"
     inkscape:window-height="955"
     id="namedview14"
     showgrid="false"
     inkscape:measure-start="0,0"
     inkscape:measure-end="0,0"
     showguides="false"
     inkscape:zoom="0.5"
     inkscape:cx="433.08815"
     inkscape:cy="537.54286"
     inkscape:window-x="0"
     inkscape:window-y="26"
     inkscape:window-maximized="1"
     inkscape:current-layer="layer1" /><metadata
     id="metadata2"> Svg Vector Icons : http://www.onlinewebfonts.com/icon <rdf:RDF><cc:Work
     rdf:about=""><dc:format>image/svg+xml</dc:format><dc:type
       rdf:resource="http://purl.org/dc/dcmitype/StillImage" /><dc:title></dc:title></cc:Work></rdf:RDF></metadata><g
     inkscape:groupmode="layer"
     id="layer1"
     inkscape:label="Layer 1"
     transform="translate(0,70)"><path
       d="M 36.980661,465.16839 A 499.99992,500 0 0 0 536.9806,965.16838 499.99992,500 0 0 0 1036.9807,465.16839 499.99992,500 0 0 0 536.9806,-34.83162 499.99992,500 0 0 0 36.980661,465.16839 Z"
       id="circle66"
       inkscape:connector-curvature="0"
       style="fill:#ebebeb;fill-opacity:1;stroke:#ffffff;stroke-width:50;stroke-miterlimit:4;stroke-dasharray:none;stroke-opacity:1" /><g
       id="g10"
       transform="translate(30,-30)"><g
         transform="matrix(0.1,0,0,-0.1,0,511)"
         id="g8"><path
           d="m 3026.6,2578.6 c -94.9,-44.4 -161.6,-119.2 -191.9,-222.2 -14.1,-46.5 -18.2,-323.2 -14.1,-793.8 6.1,-690.7 8.1,-723.1 48.5,-775.6 68.7,-92.9 135.3,-131.3 252.5,-141.4 181.8,-18.2 234.3,24.2 325.2,250.4 175.7,446.4 393.8,583.7 951.3,603.9 l 276.7,12.1 V 282 c 0,-1327 -4,-1387.5 -109.1,-1615.8 -28.3,-58.6 -88.9,-147.4 -139.4,-193.9 -82.8,-80.8 -147.4,-117.1 -444.3,-246.4 -127.2,-56.6 -175.7,-127.3 -175.7,-260.6 0,-96.9 78.8,-238.3 161.6,-286.8 68.7,-38.4 103,-40.4 1064.4,-40.4 971.5,0 993.7,0 1048.2,42.4 92.9,68.7 131.3,135.3 141.4,252.5 18.2,181.8 -24.2,234.3 -250.4,325.2 -321.1,127.2 -460.5,264.6 -555.4,541.3 -42.4,129.3 -44.4,151.5 -50.5,1419.8 l -6.1,1286.6 h 218.1 c 375.7,0 638.2,-82.8 797.8,-248.4 80.8,-82.8 117.1,-147.4 246.4,-444.3 56.5,-127.3 127.2,-175.7 260.5,-175.7 96.9,0 238.3,78.8 286.8,161.6 38.4,66.6 40.4,111.1 46.5,777.6 4,389.8 0,735.2 -6.1,771.5 -16.2,86.8 -101,185.8 -202,230.2 -76.7,36.3 -181.8,38.4 -1989.4,38.4 -1815.8,0.2 -1912.8,-1.8 -1991.5,-38.2 z"
           id="path6"
           inkscape:connector-curvature="0" /></g></g></g></svg>