<?xml version="1.0" encoding="utf-8"?>
<!-- Svg Vector Icons : http://www.onlinewebfonts.com/icon -->
<!DOCTYPE svg PUBLIC "-//W3C//DTD SVG 1.1//EN" "http://www.w3.org/Graphics/SVG/1.1/DTD/svg11.dtd">
<svg version="1.1" xmlns="http://www.w3.org/2000/svg" xmlns:xlink="http://www.w3.org/1999/xlink" x="0px" y="0px" viewBox="0 0 1000 1000" enable-background="new 0 0 1000 1000" xml:space="preserve">
<metadata> Svg Vector Icons : http://www.onlinewebfonts.com/icon </metadata>
<g><g transform="translate(0.000000,188.000000) scale(0.100000,-0.100000)"><path d="M4616.7,534.4C4207.5,474.8,3921.5,296,3762.6,2.1c-103.3-186.7-95.4-1171.9,7.9-1386.4c43.7-83.4,337.7-425.1,659.4-754.8c317.8-329.7,607.8-667.4,647.5-746.8c55.6-119.2,67.5-234.4,59.6-615.7l-11.9-464.7l-119.2-35.8c-71.5-19.9-162.9-15.9-226.4,8l-111.2,43.7v655.4v655.4h-500.5h-500.5l15.9-730.9l11.9-730.9l119.2-174.8c83.4-119.2,190.7-206.5,357.5-289.9c230.4-115.2,258.2-119.2,774.6-119.2s544.2,4,770.7,119.2c433,222.4,568.1,572,532.3,1378.4c-27.8,552.2-99.3,683.3-786.5,1382.4c-309.8,309.8-591.9,631.6-631.6,711.1c-95.3,190.7-143,742.9-71.5,877.9c39.7,79.4,79.4,99.3,206.6,99.3h158.9l11.9-544.2l11.9-548.2h492.6h496.6v536.3c0,397.2-15.9,576-59.6,687.2c-127.1,297.9-361.5,452.9-778.6,524.4C5013.9,582,4942.4,582,4616.7,534.4z"/><path d="M338.3-5833.4c0-11.9-51.6-226.4-119.2-480.6C155.6-6568.3,100-6782.9,100-6794.8c0-7.9,703.1-15.9,1561.2-15.9h1565.2L3270-6612c39.7,166.8,35.8,250.2-19.9,496.5l-71.5,297.9H1760.5C977.9-5817.5,338.3-5825.5,338.3-5833.4z"/><path d="M6753.8-6099.6c-59.6-242.3-63.5-313.8-23.8-496.6l47.6-214.5h1561.2H9900l-123.2,496.6l-119.2,496.6H8239.5H6821.4L6753.8-6099.6z"/><path d="M3615.6-5905c-8-27.8-55.6-202.6-99.3-389.3c-47.7-186.8-91.4-369.5-103.3-405.2c-19.9-67.5,75.5-71.5,1585-71.5h1608.8l-79.5,305.9c-39.7,170.8-95.3,377.4-115.2,460.8l-39.7,147H5002C3941.4-5857.2,3627.5-5869.2,3615.6-5905z"/></g></g>
</svg>