<?xml version="1.0" encoding="UTF-8" standalone="no"?>
<svg
   xmlns:dc="http://purl.org/dc/elements/1.1/"
   xmlns:cc="http://creativecommons.org/ns#"
   xmlns:rdf="http://www.w3.org/1999/02/22-rdf-syntax-ns#"
   xmlns:svg="http://www.w3.org/2000/svg"
   xmlns="http://www.w3.org/2000/svg"
   xmlns:xlink="http://www.w3.org/1999/xlink"
   xmlns:sodipodi="http://sodipodi.sourceforge.net/DTD/sodipodi-0.dtd"
   xmlns:inkscape="http://www.inkscape.org/namespaces/inkscape"
   version="1.1"
   id="svg"
   x="0px"
   y="0px"
   width="1200px"
   height="1200px"
   viewBox="0 0 1200 1200"
   xml:space="preserve"
   sodipodi:docname="icon-wireshark.svg"
   inkscape:version="0.92.1 r15371"><metadata
     id="metadata3743"><rdf:RDF><cc:Work
         rdf:about=""><dc:format>image/svg+xml</dc:format><dc:type
           rdf:resource="http://purl.org/dc/dcmitype/StillImage" /></cc:Work></rdf:RDF></metadata><defs
     id="defs3741" /><sodipodi:namedview
     pagecolor="#ffffff"
     bordercolor="#666666"
     borderopacity="1"
     objecttolerance="10"
     gridtolerance="10"
     guidetolerance="10"
     inkscape:pageopacity="0"
     inkscape:pageshadow="2"
     inkscape:window-width="1366"
     inkscape:window-height="714"
     id="namedview3739"
     showgrid="false"
     inkscape:zoom="0.42666667"
     inkscape:cx="600"
     inkscape:cy="600"
     inkscape:window-x="0"
     inkscape:window-y="26"
     inkscape:window-maximized="1"
     inkscape:current-layer="wireshark" /><a
     id="wireshark"
     xlink:href="http://free.arinco.org/"
     transform="translate(0,2)"><radialGradient
       id="grad1"
       cx="434.936"
       cy="511.17871"
       r="49.9981"
       gradientTransform="matrix(12.0004,0,0,-11.9819,-4100.6699,6780.5747)"
       gradientUnits="userSpaceOnUse"><stop
         offset="0"
         style="stop-color:#40B2E7"
         id="stop3722" /><stop
         offset="1"
         style="stop-color:#1679A7;stop-opacity:0.9381"
         id="stop3724" /></radialGradient><path
       d="M 1052.667,0.923 H 147.328 C 66.09,0.923 0,67.013 0,148.25 v 903.493 c 0,81.237 66.09,147.334 147.328,147.334 h 905.339 c 81.237,0 147.333,-66.097 147.333,-147.334 V 148.25 C 1200,67.013 1133.904,0.923 1052.667,0.923 Z M 147.328,55.569 h 905.339 c 51.107,0 92.675,41.579 92.675,92.681 V 847.807 H 881.239 c -26.181,-66.084 -119.371,-336.614 14.778,-546.563 5.109,-7.998 5.414,-18.158 0.785,-26.443 -4.56,-8.175 -13.173,-13.22 -22.513,-13.22 -0.129,0 -0.27,0 -0.41,0 -462.075,7.289 -556.66,474.484 -572.645,586.227 H 54.646 V 148.25 c 0,-51.102 41.58,-92.681 92.682,-92.681 z m 905.339,1088.85 H 147.328 c -51.102,0 -92.681,-41.568 -92.681,-92.676 V 899.371 h 269.406 c 13.442,0 24.634,-10.348 25.706,-23.743 0.111,-1.406 12.083,-142.435 83.757,-281.786 86.733,-168.65 219.494,-262.081 395.046,-278.248 -129.133,255.747 5.953,555.464 12.095,568.777 4.207,9.152 13.348,15 23.414,15 h 281.271 v 152.372 c 0,51.108 -41.568,92.676 -92.675,92.676 z"
       id="path3728"
       inkscape:connector-curvature="0" /><linearGradient
       id="grad2"
       gradientUnits="userSpaceOnUse"
       x1="426.29199"
       y1="1031.8076"
       x2="433.27951"
       y2="898.37128"
       gradientTransform="matrix(1.0047,0,0,-1.3077,695.14605,1594.1679)"><stop
         offset="0"
         style="stop-color:#D8D8D8;stop-opacity:0.8197"
         id="stop3730" /><stop
         offset="1"
         style="stop-color:#FFF;stop-opacity:0.0109"
         id="stop3732" /></linearGradient></a></svg>