<?xml version="1.0" encoding="UTF-8" standalone="no"?>
<svg
   xmlns:dc="http://purl.org/dc/elements/1.1/"
   xmlns:cc="http://creativecommons.org/ns#"
   xmlns:rdf="http://www.w3.org/1999/02/22-rdf-syntax-ns#"
   xmlns:svg="http://www.w3.org/2000/svg"
   xmlns="http://www.w3.org/2000/svg"
   xmlns:sodipodi="http://sodipodi.sourceforge.net/DTD/sodipodi-0.dtd"
   xmlns:inkscape="http://www.inkscape.org/namespaces/inkscape"
   id="Layer_1"
   viewBox="0 0 512 512"
   width="512"
   height="512"
   version="1.1"
   sodipodi:docname="brave-symbolic.svg"
   inkscape:version="0.92.1 r15371">
  <metadata
     id="metadata245">
    <rdf:RDF>
      <cc:Work
         rdf:about="">
        <dc:format>image/svg+xml</dc:format>
        <dc:type
           rdf:resource="http://purl.org/dc/dcmitype/StillImage" />
        <dc:title>brave_logo_horz</dc:title>
      </cc:Work>
    </rdf:RDF>
  </metadata>
  <defs
     id="defs243" />
  <sodipodi:namedview
     pagecolor="#ffffff"
     bordercolor="#666666"
     borderopacity="1"
     objecttolerance="10"
     gridtolerance="10"
     guidetolerance="10"
     inkscape:pageopacity="0"
     inkscape:pageshadow="2"
     inkscape:window-width="1366"
     inkscape:window-height="742"
     id="namedview241"
     showgrid="false"
     inkscape:zoom="0.76411576"
     inkscape:cx="232.71312"
     inkscape:cy="258.94168"
     inkscape:window-x="0"
     inkscape:window-y="26"
     inkscape:window-maximized="1"
     inkscape:current-layer="Layer_1" />
  <style
     id="style211">.st0{fill:url(#SVGID_1_)}.st1{fill:#fff}.st2{fill:#676767}</style>
  <title
     id="title213">brave_logo_horz</title>
  <linearGradient
     id="SVGID_1_"
     gradientUnits="userSpaceOnUse"
     x1="868.24597"
     y1="2037.533"
     x2="868.24597"
     y2="0.54000002"
     gradientTransform="matrix(1,0,0,-1,-0.25,2037.533)">
    <stop
       offset="0"
       stop-color="#f9ba16"
       id="stop215" />
    <stop
       offset=".04"
       stop-color="#faa612"
       id="stop217" />
    <stop
       offset=".11"
       stop-color="#fc8b0c"
       id="stop219" />
    <stop
       offset=".19"
       stop-color="#fd7508"
       id="stop221" />
    <stop
       offset=".28"
       stop-color="#fe6404"
       id="stop223" />
    <stop
       offset=".4"
       stop-color="#ff5902"
       id="stop225" />
    <stop
       offset=".56"
       stop-color="#ff5200"
       id="stop227" />
    <stop
       offset="1"
       stop-color="#ff5000"
       id="stop229" />
  </linearGradient>
  <path
     style="display:inline;fill:#000000;stroke-width:0.27279392"
     d="M 255.35084,0.32939753 164.09107,0.96135993 110.86579,51.012841 77.923838,46.943099 38.446743,81.953856 43.510533,102.80865 0,167.29405 11.922647,206.0966 66.089737,383.19784 c 6.299868,20.37449 20.665807,38.24661 40.654643,50.5067 0,0 65.9131,39.88951 130.85473,76.08836 10.59791,7.25494 25.64094,7.25494 36.23885,0 72.97837,-41.07761 130.73744,-76.26562 130.73744,-76.26562 19.92996,-12.28536 34.29566,-30.13169 40.56609,-50.50619 L 499.10274,205.81862 511.05471,166.91487 467.42689,102.17668 472.60797,81.220675 432.89513,46.589099 399.95318,50.482093 346.61061,0.32939753 Z M 251.2438,79.311948 c 1.42778,0 2.85578,0.06315 4.28356,0.189583 2.85554,-0.252781 5.71098,-0.252781 8.56652,0 5.38727,1.086979 14.15999,3.185301 19.4295,4.626174 l 27.14278,7.533204 c 4.73962,1.415601 9.77339,2.047356 14.77796,1.819858 l 14.98438,-2.451817 34.94342,-5.156924 9.92118,-1.541889 c 2.38453,2.098116 4.62174,4.347913 6.65301,6.698813 l 22.40268,23.93856 c 3.47376,3.71594 8.86103,9.95953 11.92265,13.95354 l 16.69147,21.13326 c 3.85646,4.82819 7.09518,10.03527 9.59747,15.49543 0.50046,3.00816 0.7654,6.04168 0.73596,9.07509 l -0.85383,2.27506 c -0.35327,1.59256 -0.85361,3.18491 -1.50126,4.72689 -4.2686,4.44902 -8.8615,8.69612 -13.71887,12.69013 l -57.75837,46.05727 c -4.15085,3.66538 -5.50526,9.04981 -3.47399,13.878 l 10.127,18.85769 c 2.03127,5.25792 2.03127,10.92042 0,16.15307 l -1.91351,4.52496 c -3.14993,7.38133 -8.53708,13.8778 -15.63179,18.85769 l -9.18462,6.44601 c -4.88682,3.05871 -11.30456,3.71614 -16.8979,1.71914 l -32.8534,-13.4233 c -5.91716,-2.45202 -11.4813,-5.5103 -16.57418,-9.07457 l -26.40623,-20.12213 -0.17709,-0.15157 c -4.23916,-3.46315 -4.38613,-9.20117 -0.35304,-12.816 l 45.27686,-33.57009 c 4.29804,-3.53898 5.7695,-8.89783 3.79711,-13.70076 l -15.63179,-32.20493 c -2.03127,-4.90404 -2.03127,-10.23791 0,-15.14194 2.85554,-4.60069 7.50685,-8.19005 13.10019,-10.16177 l 72.03669,-23.48384 c 5.15176,-1.71895 4.85703,-3.893 -0.648,-3.893 l -37.38707,-2.98257 c -6.62369,-0.32862 -13.2475,0.37888 -19.54737,2.09781 l -37.26919,11.42619 c -5.35783,1.71894 -8.44854,6.52157 -7.30044,11.3245 l 13.83617,51.23986 c 1.26586,4.62597 2.94386,9.68139 2.94386,11.32448 -1.82519,2.90703 -5.35818,4.7021 -9.1852,4.72738 l -23.75675,4.27167 c -6.53538,0.93531 -13.21784,0.93531 -19.75321,0 l -25.99455,-4.34771 c -3.79758,0 -7.32999,-1.76967 -9.18462,-4.62615 0.41214,-1.64312 1.678,-6.79974 2.94386,-11.4257 l 13.62975,-51.13866 c 1.08922,-4.77763 -2.00149,-9.55499 -7.30044,-11.32448 l -37.26977,-11.42619 c -6.32931,-1.71894 -12.95254,-2.42645 -19.5468,-2.09783 l -37.38707,2.98257 c -5.62277,0.45502 -5.82919,2.17406 -0.64799,3.893 l 72.12466,23.40781 c 5.65222,2.02229 10.27408,5.68777 13.10019,10.33901 2.03127,4.90405 2.03127,10.23791 0,15.14195 l -15.10168,32.10371 c -2.09014,4.80293 -0.67731,10.18726 3.59129,13.77681 l 45.39414,33.46887 0.1771,0.15157 c 3.91533,3.71594 3.62083,9.45396 -0.70665,12.816 l -26.28893,20.40007 c -5.06344,3.74123 -10.627,6.92613 -16.5736,9.52981 l -32.85398,13.42279 c -5.59334,1.99702 -12.01051,1.34008 -16.89732,-1.71863 l -9.1852,-6.44602 c -7.09471,-4.95458 -12.48186,-11.47636 -15.6318,-18.85769 l -1.91351,-4.52495 c -2.03127,-5.25794 -2.03127,-10.92043 0,-16.15308 l 9.59688,-19.59086 c 2.32565,-4.80292 1.23665,-10.31362 -2.85532,-14.15597 L 73.979521,194.11447 c -4.857375,-3.96873 -9.450262,-8.19034 -13.718864,-12.61408 -0.64765,-1.41559 -1.177086,-2.85627 -1.589227,-4.34771 l -0.942381,-2.27506 c 0.08832,-4.55014 0.853836,-9.04962 2.325767,-13.4228 2.38453,-3.8929 5.034122,-7.68488 7.919108,-11.32498 l 16.691477,-21.20879 c 3.061618,-3.96871 8.448888,-10.2376 11.922647,-13.95354 L 119.49154,90.472516 c 2.03126,-2.350899 4.26848,-4.600686 6.65301,-6.698803 l 9.92059,1.541889 34.44321,5.713348 15.10225,2.451817 c 5.00456,0.202225 10.03834,-0.404257 14.77796,-1.819858 l 27.14277,-7.533204 c 5.26951,-1.440873 14.04223,-3.539195 19.4295,-4.626174 1.42777,-0.126385 2.8552,-0.189583 4.28297,-0.189583 z m 1.16318,224.359762 h 6.53514 c 3.62095,0.91002 7.15371,2.02248 10.56859,3.36224 l 15.77899,5.83923 c 5.1812,1.82005 13.3947,5.08079 18.36982,7.25474 l 30.08605,12.96809 c 1.67801,0.37919 3.03266,1.39042 3.70974,2.75547 1.20699,2.42672 -0.11822,5.25751 -2.97377,6.29394 l -25.87609,15.87511 c -4.53355,2.70481 -11.6285,7.50792 -15.83822,10.69302 l -7.30101,5.43488 -15.21955,11.42569 -7.15381,5.43489 c -4.4158,3.15981 -10.83319,3.15981 -15.21955,0 l -6.85943,-5.25814 -15.21955,-11.42569 -7.30101,-5.35885 c -4.12141,-3.15981 -11.30409,-7.96294 -15.83764,-10.69302 l -25.7588,-15.69785 c -1.41306,-0.58141 -2.47285,-1.64312 -2.94387,-2.90704 -0.97147,-2.5784 0.67709,-5.33387 3.67983,-6.16806 l 29.76235,-13.29639 c 4.97513,-2.19923 13.10007,-5.5359 18.28127,-7.35596 l 16.16193,-5.81406 c 3.41488,-1.33976 6.94763,-2.47749 10.56859,-3.36224 z"
     id="path232"
     inkscape:connector-curvature="0" />
</svg>
