<?xml version="1.0" encoding="UTF-8" standalone="no"?>
<svg
   xmlns:dc="http://purl.org/dc/elements/1.1/"
   xmlns:cc="http://creativecommons.org/ns#"
   xmlns:rdf="http://www.w3.org/1999/02/22-rdf-syntax-ns#"
   xmlns:svg="http://www.w3.org/2000/svg"
   xmlns="http://www.w3.org/2000/svg"
   xmlns:sodipodi="http://sodipodi.sourceforge.net/DTD/sodipodi-0.dtd"
   xmlns:inkscape="http://www.inkscape.org/namespaces/inkscape"
   width="256pt"
   height="256pt"
   viewBox="0 0 256 256"
   version="1.1"
   id="svg4557"
   sodipodi:docname="OBS.svg"
   inkscape:version="0.92.1 r15371">
  <metadata
     id="metadata4563">
    <rdf:RDF>
      <cc:Work
         rdf:about="">
        <dc:format>image/svg+xml</dc:format>
        <dc:type
           rdf:resource="http://purl.org/dc/dcmitype/StillImage" />
      </cc:Work>
    </rdf:RDF>
  </metadata>
  <defs
     id="defs4561" />
  <sodipodi:namedview
     pagecolor="#ffffff"
     bordercolor="#666666"
     borderopacity="1"
     objecttolerance="10"
     gridtolerance="10"
     guidetolerance="10"
     inkscape:pageopacity="0"
     inkscape:pageshadow="2"
     inkscape:window-width="1366"
     inkscape:window-height="714"
     id="namedview4559"
     showgrid="false"
     inkscape:zoom="1.5394592"
     inkscape:cx="195.35066"
     inkscape:cy="160.71155"
     inkscape:window-x="0"
     inkscape:window-y="26"
     inkscape:window-maximized="1"
     inkscape:current-layer="svg4557" />
  <path
     style="opacity:1;fill:#000000;stroke-width:1.33333337;fill-opacity:1.0"
     d="M 171.93555 12.962891 C 164.59564 12.895807 157.24974 13.346146 149.97266 14.320312 C 124.34599 17.653646 99.613438 27.612578 78.773438 42.892578 C 52.34677 62.185912 32.199974 89.946483 22.306641 121.14648 C 11.50664 154.81315 12.625937 192.17375 25.585938 225.09375 C 38.719271 258.94708 64.200416 287.78615 96.09375 305.13281 C 140.90708 329.95948 198.14596 330.33375 243.2793 306.09375 C 277.6793 288.02708 304.8132 256.61419 317.5332 219.88086 C 329.0132 187.22753 329.11951 150.70633 317.82617 117.98633 C 305.69284 82.27966 279.97375 51.480678 247.09375 33.027344 C 224.30208 20.027343 198.14951 13.202474 171.93555 12.962891 z M 134.58594 38.519531 C 131.0926 42.066198 126.85396 44.800625 123.64062 48.640625 C 110.41396 62.920625 104.42674 83.573697 108.08008 102.70703 C 112.69341 131.72037 139.93279 155.28094 169.43945 154.96094 C 192.34612 155.9876 214.79932 142.80026 225.97266 122.93359 C 249.97266 123.74693 273.30659 136.13333 286.91992 156 C 293.93326 166.38667 299.41378 178.54622 299.78711 191.21289 C 295.36044 174.41289 284.17359 159.4794 268.93359 151.05273 C 254.18693 142.7594 236.09419 140.64021 219.88086 145.54688 C 199.64086 151.36021 182.9206 167.93281 176.94727 188.13281 C 172.0406 204.35948 174.14651 222.25424 181.83984 237.26758 C 171.13318 255.80091 151.80078 269.06734 130.80078 273.02734 C 114.66745 276.41401 97.693099 273.80068 82.759766 267.02734 C 96.213099 270.94734 110.81349 271.62753 124.16016 266.88086 C 142.09349 260.93419 156.91945 246.53378 163.43945 228.78711 C 170.67945 209.45378 167.91943 186.58617 155.74609 169.82617 C 146.63943 156.7595 132.34677 147.5193 116.77344 144.2793 C 111.85344 143.3993 106.85385 143.00021 101.86719 142.54688 C 93.960521 126.57354 91.04 107.99919 95 90.505859 C 99.56 68.479192 114.4926 48.679532 134.58594 38.519531 z "
     transform="scale(0.74999998)"
     id="path4551" />
</svg>
