<?xml version="1.0" encoding="UTF-8" standalone="no"?>
<svg
   xmlns:dc="http://purl.org/dc/elements/1.1/"
   xmlns:cc="http://creativecommons.org/ns#"
   xmlns:rdf="http://www.w3.org/1999/02/22-rdf-syntax-ns#"
   xmlns:svg="http://www.w3.org/2000/svg"
   xmlns="http://www.w3.org/2000/svg"
   xmlns:sodipodi="http://sodipodi.sourceforge.net/DTD/sodipodi-0.dtd"
   xmlns:inkscape="http://www.inkscape.org/namespaces/inkscape"
   x="0px"
   y="0px"
   viewBox="0 0 1365.3333 1365.3333"
   height="1365.3333"
   width="1365.3333"
   version="1.1"
   id="svg5229"
   sodipodi:docname="vivaldi-logo.svg"
   inkscape:version="0.92.1 r15371">
  <metadata
     id="metadata5233">
    <rdf:RDF>
      <cc:Work
         rdf:about="">
        <dc:format>image/svg+xml</dc:format>
        <dc:type
           rdf:resource="http://purl.org/dc/dcmitype/StillImage" />
      </cc:Work>
    </rdf:RDF>
  </metadata>
  <sodipodi:namedview
     pagecolor="#ffffff"
     bordercolor="#666666"
     borderopacity="1"
     objecttolerance="10"
     gridtolerance="10"
     guidetolerance="10"
     inkscape:pageopacity="0"
     inkscape:pageshadow="2"
     inkscape:window-width="1366"
     inkscape:window-height="742"
     id="namedview5231"
     showgrid="false"
     inkscape:zoom="0.34570315"
     inkscape:cx="815.29445"
     inkscape:cy="648.06663"
     inkscape:window-x="0"
     inkscape:window-y="26"
     inkscape:window-maximized="1"
     inkscape:current-layer="svg5229" />
  <defs
     id="defs5209">
    <clipPath
       id="b">
      <path
         d="M0 1024h1024V0H0v1024z"
         id="path5165" />
    </clipPath>
    <clipPath
       id="c">
      <path
         d="M.1292 1023.87H1023.87V.1292H.1292V1023.87z"
         id="path5168" />
    </clipPath>
    <clipPath
       id="d">
      <path
         d="M36.7426 987.257H987.257V36.7426H36.7426V987.257z"
         id="path5171" />
    </clipPath>
    <radialGradient
       id="e"
       spreadMethod="pad"
       gradientTransform="matrix(576.22689,-5.4943596,3.9971633,419.20606,686.65562,519.04178)"
       gradientUnits="userSpaceOnUse"
       r="1"
       cy="0"
       cx="0"
       fy="0"
       fx="0">
      <stop
         offset="0"
         stop-color="#ff5b5b"
         id="stop5174" />
      <stop
         offset="1"
         stop-color="#ef3939"
         id="stop5176" />
    </radialGradient>
    <clipPath
       id="f">
      <path
         d="M0 1024h1024V0H0v1024z"
         id="path5179" />
    </clipPath>
    <clipPath
       id="g">
      <path
         d="M692 497.001L484.611 213.456 770.408 71H923c16.5 0 30 13.5 30 30v616.634L803.24 797.41 692 497.001z"
         id="path5182" />
    </clipPath>
    <linearGradient
       id="a"
       gradientTransform="scale(509.7034) rotate(-33 2.355 -1.56)"
       gradientUnits="userSpaceOnUse"
       x2="1">
      <stop
         offset="0"
         stop-opacity=".3"
         stop-color="#fff"
         id="stop5185" />
      <stop
         offset=".1317"
         stop-opacity=".3"
         stop-color="#fff"
         id="stop5187" />
      <stop
         offset=".5473"
         stop-opacity="0"
         stop-color="#fff"
         id="stop5189" />
      <stop
         offset="1"
         stop-opacity="0"
         stop-color="#fff"
         id="stop5191" />
    </linearGradient>
    <mask
       id="h"
       height="1"
       width="1"
       y="0"
       x="0"
       maskUnits="userSpaceOnUse">
      <path
         d="M-32768 32767h65535v-65535h-65535v65535z"
         fill="url(#a)"
         id="path5194" />
    </mask>
    <linearGradient
       id="i"
       gradientTransform="matrix(427.47324,-277.60437,277.60437,427.47324,626.71484,525.47924)"
       gradientUnits="userSpaceOnUse"
       x2=".7504">
      <stop
         offset="0"
         stop-color="#231f20"
         id="stop5197" />
      <stop
         offset=".1317"
         stop-color="#231f20"
         id="stop5199" />
      <stop
         offset=".5473"
         id="stop5201" />
      <stop
         offset="1"
         id="stop5203" />
    </linearGradient>
    <clipPath
       id="j">
      <path
         d="M0 1024h1024V0H0v1024z"
         id="path5206" />
    </clipPath>
  </defs>
  <path
     style="fill:#000000;stroke-width:1.33333004"
     d="M 134.66602 94.669922 C 112.66607 94.669922 94.666016 112.66998 94.666016 134.66992 L 94.666016 1230.666 C 94.666016 1252.666 112.66607 1270.666 134.66602 1270.666 L 1230.6641 1270.666 C 1252.664 1270.666 1270.6641 1252.666 1270.6641 1230.666 L 1270.6641 134.66992 C 1270.6641 112.66998 1252.664 94.669922 1230.6641 94.669922 L 134.66602 94.669922 z M 1017.5645 287.28906 C 1069.8769 287.67649 1118.3991 328.15199 1125.377 381.50586 C 1128.8676 408.29646 1123.5522 432.83111 1110.2402 455.90039 C 1000.6312 645.95325 890.88866 835.91702 781.46094 1026.0605 C 761.11966 1061.3751 731.56595 1082.7536 690.99805 1085.6855 C 645.56483 1088.9775 609.88451 1069.8767 586.97656 1030.5488 C 517.62074 911.43846 449.03289 791.85369 380.15039 672.47266 C 338.25316 599.8155 296.22114 527.24977 254.50391 454.50195 C 212.42668 381.14614 259.88676 291.93612 344.31055 287.60547 C 388.8891 285.32814 423.28578 305.82599 445.90039 344.47656 C 476.82831 397.31243 507.16933 450.50952 537.78125 503.52539 C 559.85586 541.72663 581.48145 580.17495 604.16406 617.99219 C 637.02798 672.83472 685.32154 703.77292 749.60938 707.62891 C 840.61048 713.04089 925.10517 647.26134 936.00781 550.65625 C 936.81848 543.44027 937.3586 536.22405 937.69727 532.52539 C 937.20127 501.2708 931.34479 474.93264 918.91016 450.08203 C 884.94224 382.16087 921.11829 306.0075 995.02344 289.6582 C 1002.5413 287.99804 1010.0913 287.23372 1017.5645 287.28906 z "
     id="path5211" />
  <g
     clip-path="url(#f)"
     transform="matrix(1.33333,0,0,-1.33333,0,1365.333)"
     id="g5217"
     style="fill:#1a1a1a">
    <path
       style="fill:#1a1a1a;stroke-width:1.33333004"
       d="m 94.666016,1204 v 26.666 c 0,22 18.000054,40 40.000004,40 H 1230.6641 c 21.9999,0 40,-18 40,-40 V 1204 c 0,21.9999 -18.0001,40 -40,40 H 134.66602 c -21.99995,0 -40.000004,-18.0001 -40.000004,-40 z"
       transform="matrix(0.75000188,0,0,-0.75000188,0,1024.0023)"
       id="path5215"
       inkscape:connector-curvature="0" />
  </g>
  <g
     clip-path="url(#j)"
     transform="matrix(1.33333,0,0,-1.33333,0,1365.333)"
     id="g5227" />
</svg>
